<?xml version="1.0"?>
<svg xmlns="http://www.w3.org/2000/svg" viewBox="0 0 512 512" width="512" height="512"><g id="Outline"><path d="M386.274,213.334l-15.086,5.332A56.1,56.1,0,0,0,424,256a8,8,0,0,0,8-8V112a56.056,56.056,0,0,0-54.251-55.956A88,88,0,0,0,304,16H288a88.1,88.1,0,0,0-88,88v20.305A31.989,31.989,0,0,0,216,184h1.625a79.7,79.7,0,0,0,7.268,20.686l14.212-7.348A63.279,63.279,0,0,1,232,168V132.216c38.532-10.914,83.339-42.559,101.187-55.954L360,129.889V168a63.967,63.967,0,0,1-64,64v16a79.511,79.511,0,0,0,24-3.661V273.22a15.946,15.946,0,0,0,8,13.87V320a32,32,0,0,1-57.6,19.2L257.6,348.809A48,48,0,0,0,344,320V290.775l11.338,1.89,12.771,76.65a8,8,0,0,0,1.787,3.857c.7.822,1.424,1.744,2.2,2.787a54.1,54.1,0,0,1-2.221,66.895A8.007,8.007,0,0,0,368,448v48h16V450.817a70.1,70.1,0,0,0,.962-84.368c-.487-.656-.959-1.273-1.42-1.858l-11.52-69.144,17.245,2.874A31.89,31.89,0,0,1,416,329.88V496h16V329.88a47.837,47.837,0,0,0-40.1-47.341L336,273.22V237.285A79.4,79.4,0,0,0,374.4,184H376a31.989,31.989,0,0,0,16-59.695V104a87.574,87.574,0,0,0-5.486-30.588A40.066,40.066,0,0,1,416,112V239.19A40.077,40.077,0,0,1,386.274,213.334ZM216,168a16,16,0,0,1,0-32Zm156.944-48L343.155,60.422A8,8,0,0,0,331,57.752c-.733.587-69.706,55.37-115,61.661V104a72.081,72.081,0,0,1,72-72h16a72.081,72.081,0,0,1,72,72v16ZM392,152a16.019,16.019,0,0,1-16,16V136A16.019,16.019,0,0,1,392,152ZM272,140a12,12,0,1,1-12-12A12.013,12.013,0,0,1,272,140Zm60,12a12,12,0,1,1,12-12A12.013,12.013,0,0,1,332,152Zm-60,24h16a8,8,0,0,0,16,0h16a24,24,0,0,1-48,0ZM176,280H160V264h16Zm48,0H208V264h16ZM104,384a24.028,24.028,0,0,0-24,24v36a28.152,28.152,0,0,0,8.2,19.772A36.028,36.028,0,0,0,124,496h20c.266,0,.531-.014.8-.04l79.1-7.91,63.108,7.888a8.14,8.14,0,0,0,1,.062,8,8,0,0,0,7.152-4.422l14.807-29.613,4.69-2.342a24.16,24.16,0,0,0-7.39-45.523L272,409.062V392a8,8,0,0,0-.717-3.311l-24.854-54.678L253.767,312H280a8,8,0,0,0,7.428-5.029l16-40a8,8,0,0,0-2.99-9.627l-48-32c-.153-.1-16.86-8.5-16.86-8.5A7.994,7.994,0,0,0,232,216H152a7.994,7.994,0,0,0-3.578.845l-16,8c-.3.149-48.86,32.5-48.86,32.5a8,8,0,0,0-2.99,9.627l16,40A8,8,0,0,0,104,312h16V296H109.416L97.839,267.056,128,246.948V304a8.027,8.027,0,0,0,.41,2.53l9.161,27.481L114.848,384ZM256,246.948l30.161,20.108L274.584,296H256Zm49,182.99a8.161,8.161,0,0,1,2.5,15.374l-7.07,3.531a7.991,7.991,0,0,0-3.581,3.579l-13.469,26.937-58.384-7.3a7.921,7.921,0,0,0-1.788-.022L143.6,480H124a20.066,20.066,0,0,1-14.138-5.853A20.214,20.214,0,0,1,108.027,472H128a8,8,0,0,0,8-8V440h24v4a28.032,28.032,0,0,0,28,28h20a8,8,0,0,0,8-8V440h8a8,8,0,0,0,2.971-.572l38.014-15.206ZM144,236.944,153.889,232h76.222L240,236.944V302.7l-11.943,35.827A7.989,7.989,0,0,1,220.468,344H200V332.944l11.578-5.789A8,8,0,0,0,216,320V304a8,8,0,0,0-8-8H176a8,8,0,0,0-8,8v16a8,8,0,0,0,4.422,7.155L184,332.944V344H163.532a7.989,7.989,0,0,1-7.589-5.471L144,302.7Zm48,82.112-8-4V312h16v3.056Zm-45.461,33.892A23.963,23.963,0,0,0,163.532,360h56.936a23.963,23.963,0,0,0,16.993-7.052L256,393.733v16.851L222.459,424H208a8,8,0,0,0-8,8v24H188a12.013,12.013,0,0,1-12-12V408a8.009,8.009,0,0,1,8-8h40V384H184a24.028,24.028,0,0,0-24,24v16H128a8,8,0,0,0-8,8v24H108a12,12,0,0,1-12-12V408a8.009,8.009,0,0,1,8-8h40V384H132.424Z"/></g></svg>
